<svg width="248" height="85" viewBox="0 0 248 85" fill="none" xmlns="http://www.w3.org/2000/svg">
<path d="M129.5 77.5C160.666 77.5 188.938 73.8524 209.466 67.922C219.72 64.9598 228.127 61.4039 234.005 57.3891C239.834 53.4079 243.5 48.7408 243.5 43.5C243.5 38.2592 239.834 33.5921 234.005 29.6109C228.127 25.5961 219.72 22.0402 209.466 19.078C188.938 13.1476 160.666 9.5 129.5 9.5C98.3342 9.5 70.0624 13.1476 49.5342 19.078C39.2801 22.0402 30.8728 25.5961 24.9948 29.6109C19.1659 33.5921 15.5 38.2592 15.5 43.5C15.5 48.7408 19.1659 53.4079 24.9948 57.3891C30.8728 61.4039 39.2801 64.9598 49.5342 67.922C70.0624 73.8524 98.3342 77.5 129.5 77.5Z" stroke="#3AAE68" stroke-width="3"/>
<path d="M22.5 26C-5.49999 10 44.5 2 73 0C77 2 88.1 6 100.5 6C116 6 128 -2.5 141.5 6C155 14.5 162 14 200 14C238 14 231.5 10 237.5 20C243.5 30 236.5 31.5 222.5 41C208.5 50.5 254 43 246.5 57.5C239 72 228.5 80.5 200 80.5C171.5 80.5 147 73.5 128 80.5C109 87.5 79 83 33 80.5C-13 78 103.5 49 28.5 53.5C-46.5 58 57.5 46 22.5 26Z" fill="#DDF2C1"/>
<path d="M51.3261 51.37C51.2061 51.41 51.1061 51.43 51.0261 51.43C50.9261 51.43 50.8161 51.4 50.6961 51.34C50.1761 50.54 49.7661 49.86 49.4661 49.3C49.1861 48.72 48.7161 47.72 48.0561 46.3C47.3361 44.62 46.4161 42.25 45.2961 39.19C44.1761 36.13 43.6161 34.26 43.6161 33.58C43.6161 33.4 43.6561 33.27 43.7361 33.19C43.8161 33.09 43.9161 33.04 44.0361 33.04C44.1361 33.04 44.2161 33.06 44.2761 33.1C44.5161 33.24 44.8961 33.94 45.4161 35.2C45.9561 36.44 46.6961 38.3 47.6361 40.78C49.1761 44.86 50.3961 47.88 51.2961 49.84C51.7361 49.42 52.3561 48.18 53.1561 46.12C53.9561 44.04 54.6861 41.74 55.3461 39.22C56.0261 36.7 56.4261 34.56 56.5461 32.8C57.4261 32.74 57.8661 33.09 57.8661 33.85C57.8661 35.13 57.5061 37.13 56.7861 39.85C56.0661 42.57 55.1961 45.08 54.1761 47.38C53.1561 49.66 52.2061 50.99 51.3261 51.37ZM65.4779 51.37C63.8179 51.37 62.6079 51.06 61.8479 50.44C61.1079 49.82 60.7379 48.7 60.7379 47.08L61.1579 40.36V33.91C61.1579 33.41 61.2579 33.09 61.4579 32.95C61.6579 32.79 62.0979 32.71 62.7779 32.71L64.8179 32.77C67.3779 32.91 69.8779 32.98 72.3179 32.98C72.8379 32.98 73.2479 33.13 73.5479 33.43C73.8679 33.73 74.0279 34.14 74.0279 34.66C74.0279 34.76 73.9979 34.84 73.9379 34.9C73.8779 34.96 73.8079 34.98 73.7279 34.96L72.3179 34.42L62.9279 34.66C62.8079 34.66 62.7379 34.65 62.7179 34.63C62.7979 34.79 62.8379 34.93 62.8379 35.05V40.36C63.7579 40.42 64.6479 40.45 65.5079 40.45C66.9879 40.45 68.6179 40.38 70.3979 40.24C70.5779 40.22 70.8479 40.2 71.2079 40.18C71.5879 40.14 71.7979 40.14 71.8379 40.18C71.9579 40.3 72.0479 40.41 72.1079 40.51C72.1679 40.61 72.2079 40.75 72.2279 40.93C72.2879 41.37 71.6179 41.66 70.2179 41.8C68.8379 41.94 66.9879 42.05 64.6679 42.13C63.8879 42.13 63.2379 42.15 62.7179 42.19C62.4779 42.79 62.3579 43.75 62.3579 45.07L62.3879 46.84V48.79C62.7079 49.05 63.0579 49.22 63.4379 49.3C63.8179 49.38 64.4379 49.42 65.2979 49.42C66.1979 49.42 67.0779 49.37 67.9379 49.27C68.8179 49.17 69.3379 49.11 69.4979 49.09C71.1779 48.89 72.4279 48.79 73.2479 48.79C73.7279 48.79 74.0579 48.84 74.2379 48.94C74.4379 49.02 74.5379 49.17 74.5379 49.39C74.5379 50.71 71.8579 51.37 66.4979 51.37H65.4779ZM92.1012 53.41C91.4212 53.41 90.9612 53.05 90.7212 52.33C90.5012 51.63 90.3912 50.86 90.3912 50.02L90.4812 49.15C89.5012 49.77 88.3412 50.26 87.0012 50.62C85.6812 50.98 84.2912 51.16 82.8312 51.16C81.7712 51.16 80.8312 50.92 80.0112 50.44C79.1912 49.94 78.5512 49.27 78.0912 48.43C77.6512 47.57 77.4312 46.6 77.4312 45.52C77.4312 43.88 78.0712 42.33 79.3512 40.87C80.6312 39.39 82.2012 38.19 84.0612 37.27C85.9412 36.33 87.6812 35.8 89.2812 35.68C90.0812 35.6 90.7612 35.78 91.3212 36.22C91.8812 36.64 92.1612 37.23 92.1612 37.99C91.7412 37.99 91.2412 37.88 90.6612 37.66C90.5812 37.64 90.3712 37.58 90.0312 37.48C89.6912 37.38 89.3412 37.33 88.9812 37.33C87.5612 37.33 86.0512 37.74 84.4512 38.56C82.8712 39.38 81.5412 40.47 80.4612 41.83C79.4012 43.17 78.8712 44.58 78.8712 46.06C78.8712 46.76 79.0812 47.37 79.5012 47.89C79.9412 48.39 80.4812 48.78 81.1212 49.06C81.7812 49.32 82.4412 49.45 83.1012 49.45C84.6812 49.45 85.9812 49.39 87.0012 49.27C88.0212 49.13 88.9012 48.78 89.6412 48.22C90.3812 47.64 90.7512 46.76 90.7512 45.58C90.7512 45.02 90.6312 44.63 90.3912 44.41H85.0512C84.7712 44.41 84.5012 44.27 84.2412 43.99C84.0012 43.71 83.8812 43.43 83.8812 43.15C83.8812 42.65 84.0312 42.4 84.3312 42.4C84.5712 42.4 84.9512 42.5 85.4712 42.7C85.9512 42.92 86.3612 43.03 86.7012 43.03C87.1412 43.03 87.8212 42.97 88.7412 42.85C88.9012 42.83 89.1912 42.8 89.6112 42.76C90.0312 42.72 90.4112 42.7 90.7512 42.7C91.0912 42.7 91.4212 42.85 91.7412 43.15C92.0812 43.43 92.2412 43.75 92.2212 44.11L92.0412 51.04C92.1812 51.32 92.4212 51.56 92.7612 51.76C92.8812 51.82 92.9812 51.89 93.0612 51.97C93.1412 52.07 93.1912 52.17 93.2112 52.27C93.3112 52.49 93.2112 52.73 92.9112 52.99C92.6112 53.27 92.3412 53.41 92.1012 53.41ZM102.48 51.37C100.82 51.37 99.6098 51.06 98.8498 50.44C98.1098 49.82 97.7398 48.7 97.7398 47.08L98.1598 40.36V33.91C98.1598 33.41 98.2598 33.09 98.4598 32.95C98.6598 32.79 99.0998 32.71 99.7798 32.71L101.82 32.77C104.38 32.91 106.88 32.98 109.32 32.98C109.84 32.98 110.25 33.13 110.55 33.43C110.87 33.73 111.03 34.14 111.03 34.66C111.03 34.76 111 34.84 110.94 34.9C110.88 34.96 110.81 34.98 110.73 34.96L109.32 34.42L99.9298 34.66C99.8098 34.66 99.7398 34.65 99.7198 34.63C99.7998 34.79 99.8398 34.93 99.8398 35.05V40.36C100.76 40.42 101.65 40.45 102.51 40.45C103.99 40.45 105.62 40.38 107.4 40.24C107.58 40.22 107.85 40.2 108.21 40.18C108.59 40.14 108.8 40.14 108.84 40.18C108.96 40.3 109.05 40.41 109.11 40.51C109.17 40.61 109.21 40.75 109.23 40.93C109.29 41.37 108.62 41.66 107.22 41.8C105.84 41.94 103.99 42.05 101.67 42.13C100.89 42.13 100.24 42.15 99.7198 42.19C99.4798 42.79 99.3598 43.75 99.3598 45.07L99.3898 46.84V48.79C99.7098 49.05 100.06 49.22 100.44 49.3C100.82 49.38 101.44 49.42 102.3 49.42C103.2 49.42 104.08 49.37 104.94 49.27C105.82 49.17 106.34 49.11 106.5 49.09C108.18 48.89 109.43 48.79 110.25 48.79C110.73 48.79 111.06 48.84 111.24 48.94C111.44 49.02 111.54 49.17 111.54 49.39C111.54 50.71 108.86 51.37 103.5 51.37H102.48Z" fill="#127338"/>
<path d="M123.403 51.37C122.843 51.37 122.453 51.08 122.233 50.5C122.013 49.92 121.833 49.14 121.693 48.16L121.603 47.41C121.303 45.81 121.063 44.22 120.883 42.64C120.703 41.04 120.523 39.11 120.343 36.85L120.163 34.63C118.963 34.65 117.253 34.6 115.033 34.48L114.433 34.45C114.153 34.43 113.953 34.3 113.833 34.06C113.733 33.8 113.683 33.45 113.683 33.01H115.753C119.233 33.01 122.373 33.14 125.173 33.4C127.973 33.66 129.373 34.19 129.373 34.99C129.373 35.21 129.333 35.36 129.253 35.44C129.193 35.52 129.053 35.56 128.833 35.56C128.033 35.5 126.793 35.33 125.113 35.05C124.733 34.99 124.273 34.92 123.733 34.84C123.193 34.76 122.583 34.68 121.903 34.6C121.903 37.5 122.333 41.96 123.193 47.98C123.233 48.28 123.373 48.71 123.613 49.27C123.713 49.51 123.803 49.77 123.883 50.05C123.983 50.31 124.033 50.55 124.033 50.77C124.033 51.05 123.993 51.22 123.913 51.28C123.833 51.34 123.733 51.37 123.613 51.37C123.513 51.37 123.443 51.37 123.403 51.37ZM145.43 51.37C145.19 51.37 145.02 51.31 144.92 51.19C144.84 51.07 144.8 50.9 144.8 50.68C144.8 50.24 144.9 49.56 145.1 48.64C145.32 47.8 145.43 47.11 145.43 46.57C145.43 45.01 145.31 43.82 145.07 43H144.14C143.32 43 142.25 42.98 140.93 42.94L138.11 42.91H134.06L134.12 44.08C134.12 45 134.27 46.15 134.57 47.53C134.67 48.09 134.76 48.66 134.84 49.24C134.94 49.8 134.99 50.31 134.99 50.77V51.04C134.79 51.24 134.58 51.34 134.36 51.34C133.84 51.34 133.43 50.73 133.13 49.51C132.83 48.27 132.68 46.78 132.68 45.04C132.68 44.34 132.71 43.65 132.77 42.97C132.33 42.95 132.03 42.88 131.87 42.76C131.71 42.62 131.63 42.41 131.63 42.13C131.63 41.91 131.69 41.76 131.81 41.68C131.95 41.6 132.19 41.54 132.53 41.5L132.5 40.69L132.59 39.31C132.73 37.05 132.94 35.21 133.22 33.79C133.5 32.37 134.1 31.14 135.02 30.1C135.94 29.06 137.32 28.54 139.16 28.54C141.26 28.54 142.9 29.67 144.08 31.93C145.26 34.19 146.06 36.71 146.48 39.49C146.9 42.27 147.11 44.66 147.11 46.66C147.11 47.38 147.09 48.01 147.05 48.55C147.01 49.07 146.93 49.72 146.81 50.5C146.35 51.08 145.89 51.37 145.43 51.37ZM144.95 41.83C144.57 38.13 143.89 35.23 142.91 33.13C141.93 31.01 140.46 29.95 138.5 29.95C137.04 29.95 135.96 30.63 135.26 31.99C134.58 33.33 134.17 34.77 134.03 36.31C133.89 37.85 133.82 39.58 133.82 41.5L144.95 41.83ZM162.087 51.37C158.267 51.37 155.307 51.16 153.207 50.74C152.667 40.72 152.177 34.66 151.737 32.56L150.837 32.77C150.357 32.87 149.897 32.98 149.457 33.1C149.017 33.2 148.547 33.35 148.047 33.55L148.017 32.53C148.017 32.19 148.387 31.88 149.127 31.6C149.867 31.3 150.757 31.07 151.797 30.91C152.857 30.73 153.797 30.64 154.617 30.64C155.517 30.64 156.547 30.8 157.707 31.12C158.887 31.44 159.897 31.92 160.737 32.56C161.577 33.18 161.997 33.92 161.997 34.78C161.997 35.76 161.617 36.63 160.857 37.39C160.117 38.13 159.147 38.66 157.947 38.98C159.707 39.28 161.347 39.82 162.867 40.6C164.387 41.36 165.607 42.31 166.527 43.45C167.447 44.57 167.907 45.78 167.907 47.08C167.907 48.58 167.327 49.67 166.167 50.35C165.007 51.03 163.647 51.37 162.087 51.37ZM161.307 49.66C162.787 49.66 163.927 49.5 164.727 49.18C165.527 48.84 165.927 48.12 165.927 47.02C165.927 45.86 165.577 44.89 164.877 44.11C164.197 43.31 163.387 42.69 162.447 42.25C161.527 41.79 160.377 41.31 158.997 40.81C157.897 40.43 157.077 40.1 156.537 39.82C156.017 39.52 155.757 39.19 155.757 38.83C155.757 38.57 155.887 38.37 156.147 38.23C156.407 38.09 156.867 37.89 157.527 37.63C158.427 37.33 159.127 37.01 159.627 36.67C160.147 36.31 160.407 35.81 160.407 35.17C160.407 34.23 159.837 33.51 158.697 33.01C157.557 32.49 156.277 32.23 154.857 32.23C154.457 32.23 153.977 32.27 153.417 32.35C153.937 35.71 154.297 38.54 154.497 40.84C154.697 43.12 154.837 45.77 154.917 48.79C155.197 49.07 155.907 49.28 157.047 49.42C158.187 49.56 159.607 49.64 161.307 49.66ZM176.662 51.4C174.662 51.4 173.152 51.06 172.132 50.38C171.112 49.68 170.602 48.42 170.602 46.6C171.002 36.6 171.642 31.83 172.522 32.29C172.962 32.31 173.182 32.99 173.182 34.33C173.182 35.15 173.042 36.88 172.762 39.52C172.402 42.56 172.222 44.79 172.222 46.21L172.252 47.08C172.252 47.52 172.382 47.96 172.642 48.4C172.922 48.84 173.272 49.08 173.692 49.12L179.572 49.63C179.792 49.65 179.902 49.86 179.902 50.26C179.902 50.62 179.812 50.87 179.632 51.01C179.472 51.15 179.182 51.26 178.762 51.34L176.662 51.4ZM187.646 51.37C185.986 51.37 184.776 51.06 184.016 50.44C183.276 49.82 182.906 48.7 182.906 47.08L183.326 40.36V33.91C183.326 33.41 183.426 33.09 183.626 32.95C183.826 32.79 184.266 32.71 184.946 32.71L186.986 32.77C189.546 32.91 192.046 32.98 194.486 32.98C195.006 32.98 195.416 33.13 195.716 33.43C196.036 33.73 196.196 34.14 196.196 34.66C196.196 34.76 196.166 34.84 196.106 34.9C196.046 34.96 195.976 34.98 195.896 34.96L194.486 34.42L185.096 34.66C184.976 34.66 184.906 34.65 184.886 34.63C184.966 34.79 185.006 34.93 185.006 35.05V40.36C185.926 40.42 186.816 40.45 187.676 40.45C189.156 40.45 190.786 40.38 192.566 40.24C192.746 40.22 193.016 40.2 193.376 40.18C193.756 40.14 193.966 40.14 194.006 40.18C194.126 40.3 194.216 40.41 194.276 40.51C194.336 40.61 194.376 40.75 194.396 40.93C194.456 41.37 193.786 41.66 192.386 41.8C191.006 41.94 189.156 42.05 186.836 42.13C186.056 42.13 185.406 42.15 184.886 42.19C184.646 42.79 184.526 43.75 184.526 45.07L184.556 46.84V48.79C184.876 49.05 185.226 49.22 185.606 49.3C185.986 49.38 186.606 49.42 187.466 49.42C188.366 49.42 189.246 49.37 190.106 49.27C190.986 49.17 191.506 49.11 191.666 49.09C193.346 48.89 194.596 48.79 195.416 48.79C195.896 48.79 196.226 48.84 196.406 48.94C196.606 49.02 196.706 49.17 196.706 49.39C196.706 50.71 194.026 51.37 188.666 51.37H187.646Z" fill="#113F23"/>
<path d="M214.419 52.36C214.279 52.52 214.079 52.6 213.819 52.6C212.879 52.6 211.379 51.74 209.319 50.02C207.279 48.28 205.469 46.55 203.889 44.83C203.989 45.37 204.179 46.28 204.459 47.56C204.579 48.06 204.679 48.54 204.759 49C204.859 49.46 204.909 49.82 204.909 50.08C204.909 50.66 204.699 51.01 204.279 51.13C204.179 51.39 203.909 50.74 203.469 49.18C203.049 47.62 202.649 45.82 202.269 43.78C201.909 41.72 201.729 40 201.729 38.62C201.729 37.92 201.789 37.35 201.909 36.91C202.169 36.71 202.389 36.61 202.569 36.61C202.929 36.61 203.179 36.92 203.319 37.54C203.459 38.14 203.589 39.09 203.709 40.39L203.769 41.08C204.549 41.04 205.609 40.87 206.949 40.57C208.309 40.27 209.519 39.86 210.579 39.34C211.659 38.8 212.199 38.16 212.199 37.42C212.199 37.02 211.909 36.58 211.329 36.1C210.769 35.6 209.899 35.18 208.719 34.84C207.559 34.5 206.129 34.33 204.429 34.33H203.469C202.329 34.33 201.439 34.52 200.799 34.9C200.159 35.26 199.839 36.04 199.839 37.24C199.539 37.24 199.269 37.05 199.029 36.67C198.789 36.29 198.669 35.94 198.669 35.62C198.669 34.38 199.259 33.57 200.439 33.19C201.639 32.81 203.359 32.62 205.599 32.62C206.779 32.62 208.009 32.81 209.289 33.19C210.569 33.57 211.649 34.17 212.529 34.99C213.409 35.79 213.849 36.79 213.849 37.99C213.849 38.81 213.479 39.49 212.739 40.03C212.019 40.57 211.169 40.99 210.189 41.29C209.209 41.59 208.009 41.9 206.589 42.22C205.409 42.48 204.639 42.67 204.279 42.79C205.819 44.87 207.299 46.49 208.719 47.65C210.159 48.81 211.659 49.86 213.219 50.8C213.759 51.12 214.139 51.36 214.359 51.52C214.579 51.68 214.689 51.83 214.689 51.97C214.689 52.11 214.599 52.24 214.419 52.36Z" fill="#127338"/>
</svg>
