<svg width="134" height="134" viewBox="0 0 134 134" fill="none" xmlns="http://www.w3.org/2000/svg">
<rect x="2.5" y="2.5" width="129" height="129" fill="#474746" stroke="#3AAE68" stroke-width="5"/>
<path d="M104 57.75C104 50.0871 97.7879 43.875 90.125 43.875C90.125 36.2121 83.9129 30 76.25 30C72.6961 30 69.4549 31.3368 67 33.5342C64.5451 31.3368 61.3039 30 57.75 30C50.0871 30 43.875 36.2121 43.875 43.875C36.2121 43.875 30 50.0871 30 57.75C30 65.4129 36.2121 71.625 43.875 71.625C51.5379 71.625 57.75 65.4129 57.75 57.75C61.3039 57.75 64.5451 56.4132 67 54.2158C69.4549 56.4132 72.6961 57.75 76.25 57.75C76.25 65.4129 82.4621 71.625 90.125 71.625C97.7879 71.625 104 65.4129 104 57.75ZM43.875 55.293C42.5202 55.293 41.418 56.3952 41.418 57.75C41.418 59.1048 42.5202 60.207 43.875 60.207V64.543C40.1293 64.543 37.082 61.4957 37.082 57.75C37.082 54.0043 40.1293 50.957 43.875 50.957V55.293ZM60.207 43.875C60.207 42.5202 59.1048 41.418 57.75 41.418C56.3952 41.418 55.293 42.5202 55.293 43.875H50.957C50.957 40.1293 54.0043 37.082 57.75 37.082C61.4957 37.082 64.543 40.1293 64.543 43.875H60.207Z" fill="#3AAE68"/>
<path d="M78.3482 71.6408L73.0182 77.9254C72.3061 77.6979 72.3371 77.7079 71.625 77.4804V61.4902C70.0032 61.0648 68.4468 60.4169 67 59.5629C65.5531 60.4168 63.9968 61.0648 62.375 61.4902V77.4803C61.6629 77.7078 61.694 77.6978 60.9819 77.9253L55.6519 71.6406C53.1601 73.7602 50.1853 75.1491 46.9905 75.6967L54.0463 84.2716V104H79.9539V84.2718L87.0096 75.6969C83.8148 75.1493 80.8399 73.7602 78.3482 71.6408Z" fill="#3AAE68"/>
</svg>
